<?xml version="1.0" encoding="UTF-8"?>
<svg id="Capa_2" data-name="Capa 2" xmlns="http://www.w3.org/2000/svg" viewBox="0 0 686.97 187.36">
  <defs>
    <style>
      .cls-1 {
        fill: #f8f8f8;
      }
    </style>
  </defs>
  <g id="Capa_1-2" data-name="Capa 1">
    <g>
      <path class="cls-1" d="M276.71,19.96l2.04,17.95-3.87-.13c-4.37-24.44-49.07-15.85-38.31,8.82,6.74,15.45,38.68,17.06,46.21,34.79,7.97,18.76-9,34.86-26.78,37.26-7.65,1.04-26.19.57-32.62-3.86-3.66-2.52-4.03-16.2-4.61-20.88,5.42-1.44,5.74,5.96,8.56,9.94,11.56,16.3,42.58,12.11,42.44-7.45-.16-22.88-49.86-22-48.04-53.02,1.57-26.81,35.06-27.86,54.99-23.42Z"/>
      <path class="cls-1" d="M486.76,56.91v14l26.75-14.76,26.26-.23-.12,3.89c-4.46.87-10.47,1.44-11.67,6.82-1.1,4.93-.78,25.1-.2,30.77,1,9.82,6.8,16.07,16.99,15.52v3.99c-9.48-1.02-27.7,2.99-30.58-8.92-.29-1.21-1.42-7.79-1.42-8.57v-34.5l-25.83,14.67c1.21,11.85-6.33,35.29,12.84,33.34v3.99h-40v-4c5.55.12,11.06.32,12.56-5.94,1.25-5.21,1.15-35.82-.06-41.1-1.41-6.17-7.28-4.97-12.46-6.02l-.04-4.95c8.83,2.48,17.9,2.07,26.99,2Z"/>
      <path class="cls-1" d="M576.76,29.41c-1.1-5.18-8.72-5.83-12.88-6.61l-.12-3.88c13.34,1.62,26.71.98,40.01,0l-.07,3.93c-.35.39-8.38.8-10.27,1.98-.41.25-2.66,4.32-2.66,4.59v25.5c8.27.75,15.92-.67,23.97-1.97.55,8.46,2.45,17.04,3.04,25.47.18,2.6-2.41,1.86-3.52.5-.96-5.75-2.67-12.66-8.15-15.85-2-1.16-15.35-4.89-15.35-1.65v50c0,.52,1.36,6.26,1.68,7.32,1.77,5.96,6.16,13.66,13.27,13.24l.06,3.93c-13.37,1.26-23.08-7.55-26.52-19.98-1.53-5.52-2.23-14.61-2.52-20.48-.59-11.78.52-23.76.04-35.54-14.33-.14-22.87,4.97-24.02,20h-2.98s2-27,2-27c8.38,1.25,16.42,2.76,25,2-1.07-7.33,1.44-18.73,0-25.5Z"/>
      <path class="cls-1" d="M407.77,57.92c1.25,4.78-4.49,2.91-7.95,4.55-1.01.48-3.54,3.08-3.85,4.15.96,9.07-2.99,40.32,2.33,46.26,2.48,2.77,6.72,1.6,9.88,2.94l.59,3.08c-8.53-.1-16.96-1.58-25.54-1.03-9.35.6-16.52,3.15-26.7,1.78-37.58-5.04-40.29-60.34-.3-62.77,7.89-.48,16.25,1.75,24,2.07,9.27.38,18.32-1.06,27.55-1.04ZM359.5,61.16c-22.72,3.64-24.8,37.65-7.66,50.17,10.15,7.42,26.73,3.97,29.47-9.36,1.07-5.2,1.22-25.19.39-30.5-1.42-8.98-14.76-11.51-22.2-10.31Z"/>
      <path class="cls-1" d="M325.76,18.92l-.07,3.93c-4.74.88-12.53.41-12.98,6.52,2.05,21.63-2.62,47.91.13,68.96,1.04,7.99,6.31,16.41,14.95,17.1l-.03,3.48c-42.22.55-25.83-57.88-29.29-85.21-1.22-9.64-3.54-9.43-12.6-10.89l-.11-3.88c13.61,3.1,26.35,1.57,40,0Z"/>
      <path class="cls-1" d="M637.76,90.91c-.36,23.38,31.16,32.55,45.46,15.95,1.46-1.7.69-4.66,3.53-3.94-.29,3.01,1.04,11.37-1.66,13.07-5.08,3.19-22.71,4.5-28.87,3.96-44.09-3.85-44.13-62.27,3.05-65.02,5.54-.32,19.93,1.72,24.76,4.2,4.1,2.1,2.94,13.61,2.21,13.78l-7.98-9.01c-18.64-10.21-39.13,1.04-41.51,22.01h23.5c.67,0,3.02-4.25,4.86-3.93l5.57,6.3-5.46,6.63c-1.75.43-4.29-4-4.97-4h-22.5Z"/>
      <path class="cls-1" d="M87.56.21c74.8-4.9,125.2,77.14,86.62,141.62-33.8,56.48-114.91,61.49-154.82,8.98C-26,91.13,13.06,5.09,87.56.21ZM81.55,3.21C24.74,8.99-11.11,70.55,7.3,123.87c20.62,59.72,96.22,81.11,144.93,40.01C221.89,105.11,173.49-6.15,81.55,3.21Z"/>
      <path class="cls-1" d="M455.76,54.92l-.11,3.88c-6.36,1.39-10.85.47-12.44,8.06s-1.06,27.63-.49,35.6c.67,9.42,2.85,12.91,13.05,12.46v3.99c-6.55,1.04-13.2-2.08-19.51-2.09-6.86,0-14.37,3.18-21.5,2.09v-3.99c7.3.2,12.31-.11,13.05-8.46,1.18-13.22-.79-28.4-.26-41.83-1.28-5.58-8.39-4.91-12.72-5.78l-.06-3.93c13.86,1.93,27.14,2.36,40.99,0Z"/>
      <path class="cls-1" d="M390.76,156.93l5.99,4.98c.72-3.17,1.41-9.86,6-8.99.92.86-4.11,9.89-3.84,11.35.24,1.25,9.23,7.63,4.33,8.64-1.73.36-4.52-4.01-5.99-4.99-8.31,14.91-26.54-1.34-12.51-11.51-7.66-5.66-.21-17.94,7.93-12.91,5.17,3.2,4.4,12.29-1.91,13.43ZM387.47,146.05c-4.69,1.31-2.87,10.25,2.58,8.71,4.68-1.32,3.27-10.35-2.58-8.71ZM386.38,158.96c-9.84,8.24,2.86,17.79,8.31,6.59l-8.31-6.59Z"/>
      <path class="cls-1" d="M277.76,144.41c.99-3.19,12.39-.85,14.47,1.53,3.48,3.98.24,8.12.54,11.44.19,2.15,2.94,3.61,3.06,7.05.37,9.92-11.15,11.72-18.08,7.98v-28ZM281.77,156.92l8.08-2.41c3.28-6.74-2.16-8.45-8.09-7.6v10.01ZM281.76,170.92c14.58,1.66,14.5-13.25,0-11.01v11.01Z"/>
      <path class="cls-1" d="M343.76,142.91c14.78-3,27.69,8.54,13.01,19.57.27,1.89,7.11,10.46,5.98,11.43-.2.17-3.09.17-3.79-.21-.76-.42-8.22-14.4-8.22-15.27,14.9-.05,9.98-14.22-2.99-11.51v27h-4v-31Z"/>
      <path class="cls-1" d="M466.51,142.16c19.78-1.13,21.95,31.29.75,31.84-19.36.5-21.14-30.68-.75-31.84ZM475.42,167.58c9.94-9.48-1.02-27.18-14.03-20.53-15.99,8.16.49,33.46,14.03,20.53Z"/>
      <path class="cls-1" d="M434.46,20.02c2.93-.77,9.77,8.42,12.23,10.53l-10.57,11.21c-2.89.56-10.02-8.33-12.28-10.48-.19-1.08,9.46-10.95,10.63-11.26Z"/>
      <path class="cls-1" d="M299.76,144.41c11.85-5.67,29.39,3.51,3.99,2.49v9.01c17.29-1.63,17.25,5.62,0,3.99v10.01c.99.98,17.33-2.52,11.51,3.99h-15.5v-29.5Z"/>
      <polygon class="cls-1" points="337.76 142.91 337.77 146.91 325.74 147.49 325.76 155.92 337.77 156.42 337.77 159.91 325.76 159.91 325.76 169.92 337.77 169.92 337.76 173.91 321.76 173.91 321.76 144.41 323.26 142.91 337.76 142.91"/>
      <path class="cls-1" d="M522.76,158.91c4.51-3.65,7.94-10.78,11.98-14.52,1.36-1.26,1.97-1.83,4.01-1.48l-10.66,15.49c.58,1.96,11.75,14.6,10.66,15.5-.55.46-3.12.13-4.08-.66-1.64-1.35-7.71-12.34-9.42-12.31-3.75,3.32-2.26,8.59-2.5,12.98h-4v-29.5c1.57-2.03,2.48-1.97,4,0v14.5Z"/>
      <path class="cls-1" d="M447.76,150.91c-3.87.36-4.63-3.22-8.15-4.33-20.17-6.33-23.76,27.92-.57,23.1,3.61-.75,5.38-4.09,8.72-4.76.26,4.66-5.77,8.11-9.73,8.75-21.48,3.48-25.3-27.61-5.29-31.36,5.16-.97,14.41,2.53,15.02,8.6Z"/>
      <path class="cls-1" d="M513.76,150.91c-3.87.36-4.63-3.22-8.15-4.33-20.17-6.33-23.76,27.92-.57,23.1,3.61-.75,5.38-4.09,8.72-4.76.26,4.66-5.77,8.11-9.73,8.75-21.48,3.48-25.3-27.61-5.29-31.36,5.16-.97,14.41,2.53,15.02,8.6Z"/>
      <path class="cls-1" d="M579.76,173.91c-4.92.74-5.25-5.5-6.09-8.89l-13.79.02c-1.11,3.28-1.45,9.75-6.11,8.87-1.04-.98,8.25-24.57,9.49-27,.79-1.55,1.5-3.06,3.12-3.94l3.14,2.7,10.25,28.24ZM567.75,147.91c-2.27-.41-1.59.12-2.23,1.28-.74,1.35-4.27,12.23-3.76,12.72h9.99s-4.01-14-4.01-14Z"/>
      <path class="cls-1" d="M624.76,150.91c-4.29.98-2.39-1.77-3.9-3.55-2.93-3.45-8.86-1.21-8.12,4s10.71,3.6,12.58,9.51c4.49,14.22-17.56,19.12-16.54,3.06,5.38,1.39,2.03,6.89,9.52,6.07,3.93-.43,4.21-2.78,3.46-6.55-1.14-5.77-12.84-4-12.84-13.03,0-10.52,16.96-11.38,15.85.5Z"/>
      <path class="cls-1" d="M595.76,169.91c4.07.34,10.81-1.91,10,4h-14v-29.5c1.52-1.97,2.43-2.03,4,0v25.5Z"/>
      <polygon class="cls-1" points="554.76 143.91 554.77 146.91 549.76 146.91 549.76 173.91 545.76 173.91 545.76 146.91 539.76 146.91 539.76 143.91 554.76 143.91"/>
      <path class="cls-1" d="M586.76,173.91h-4v-31c1.16-.4,4,.44,4,1.5v29.5Z"/>
      <path class="cls-1" d="M87.56,5.21C158.32.1,205.98,77.45,170.18,138.83c-36.62,62.8-131.31,56.15-158.6-11.24C-11.19,71.35,27.27,9.57,87.56,5.21ZM86.56,9.21C11.01,15.76-18.78,110.94,39.75,159.43c39.59,32.8,100.88,22.05,126.82-22.21C201.33,77.88,154.98,3.28,86.56,9.21Z"/>
      <path class="cls-1" d="M94.75,175.92c-2.27.41-1.59-.12-2.23-1.28-1.69-3.08-13.72-38.62-13.81-41.26l15.55-87.48,14.43,89.44-13.94,40.57Z"/>
      <path class="cls-1" d="M132.76,50.91l-6.98-1c-2.46,11.01-5.69.62-7.6.17-1.35-.32-4.87,2.04-6.43.32,2.14-12.91,20.74-12.68,21.01.51Z"/>
      <path class="cls-1" d="M74.76,50.91l-7.95-.96c.15,1.84-1.35,5.3-3.45,4.93l-2.64-4.93-7.97.46c3.19-12.97,19.52-12.66,22.01.51Z"/>
      <path class="cls-1" d="M103.76,24.91l-6.95-.99c-.47,2.45-1.44,5.61-4.54,5l-2.5-4.59c-1.61-1-7.51,2.69-7.02-.92.9-6.69,8.48-6.81,9.56-8.46.95-1.44-.49-4.17,1.45-4.04-.95,5.89,3.09,4.03,6.57,6.93,1.99,1.65,3.72,4.37,3.43,7.06Z"/>
      <path class="cls-1" d="M66.75,56.92c.45,7.8-6.47,7.7-5.99,0h5.99Z"/>
      <path class="cls-1" d="M125.75,56.92c.13,3.09-1.29,6.72-4.98,5.99l-1.01-5.99h5.99Z"/>
      <path class="cls-1" d="M89.76,30.91c1.78-.06,5.2-.05,7,0,.25-1.01-.35-2.71.93-3.56,3.32-2.22,6.06,1.14,5.07,4.56-2.08-.47-3.81-.93-5.99-1-1.74,7.02-5.25,7.01-7,0-2.06.07-3.92,1.06-5.99,1l1.59-4.91c4.66-.75,3.69,1.06,4.4,3.92Z"/>
      <path class="cls-1" d="M73.76,57.91c-3.07.13-6.74-1.3-5.99-4.99,4.39-.45,6.69.03,5.99,4.99Z"/>
      <path class="cls-1" d="M128.25,51.95c.36-.03,4.23,1.72,4.47,2.51-.94,8.82-9.4-2.13-4.47-2.51Z"/>
      <path class="cls-1" d="M59.76,52.92c.75,3.69-2.92,5.12-5.99,4.99-.7-4.96,1.6-5.44,5.99-4.99Z"/>
      <path class="cls-1" d="M118.76,52.92c.75,3.69-2.92,5.12-5.99,4.99-.7-4.96,1.6-5.44,5.99-4.99Z"/>
      <path class="cls-1" d="M96.76,37.92c-.51,4.5-4.56,5.31-6.99,1.48-1.07-2.72,5.91-1.08,6.99-1.48Z"/>
      <path class="cls-1" d="M125.76,63.92c.96,5.95-7.78,5.16-5.49-.01h5.49Z"/>
      <path class="cls-1" d="M66.76,63.92c.5,5.7-6.27,5.65-5.99,0h5.99Z"/>
      <polygon class="cls-1" points="67.51 124.67 29.78 144.42 83.75 56.91 67.51 124.67"/>
      <path class="cls-1" d="M103.77,56.91l53.5,87.98-37.97-21.02c-5-22.34-11.51-44.49-15.53-66.96Z"/>
    </g>
  </g>
</svg>